<svg height="512pt" viewBox="0 0 512 512" width="512pt" xmlns="http://www.w3.org/2000/svg"><path d="m512 317-216 76h-82l-214-76 65.910156-165h380.179688zm0 0" fill="#fdbf00"/><path d="m512 317v195h-256v-360h190.089844zm0 0" fill="#ff9100"/><path d="m421 107v210l-124.910156 76h-81.679688l-123.410156-76v-317h225l14 93zm0 0" fill="#fff4ca"/><g fill="#ffe1ba"><path d="m421 107v210l-124.910156 76h-40.089844v-393h60l14 93zm0 0"/><path d="m151 182h210v30h-210zm0 0"/><path d="m151 122h120v30h-120zm0 0"/><path d="m151 242h210v30h-210zm0 0"/></g><path d="m512 317v195h-512v-195h166l30 60h120l30-60zm0 0" fill="#fbe000"/><path d="m512 317v195h-256v-135h60l30-60zm0 0" fill="#fdbf00"/><path d="m181 422h150v30h-150zm0 0" fill="#fdbf00"/><path d="m256 422h75v30h-75zm0 0" fill="#ff9100"/><path d="m256 122h15v30h-15zm0 0" fill="#ffc473"/><path d="m256 182h105v30h-105zm0 0" fill="#ffc473"/><path d="m256 242h105v30h-105zm0 0" fill="#ffc473"/><path d="m421 107-105-107v107zm0 0" fill="#ffc473"/></svg>